<svg xmlns="http://www.w3.org/2000/svg" viewBox="0 0 33.000001 33"><defs><clipPath id="0"><path d="m0 100h100v-100h-100"/></clipPath></defs><g transform="matrix(1.33333 0 0-1.33333-54.01 79.13)"><path d="m59.51 41.531h-19v13.938h19z" fill="#81d8d0"/><path d="m0 0l-6.691-4.691-6.691 4.691-.607-.606 7.298-5.298 7.298 5.298z" fill="#fff" transform="translate(56.803 53.644)"/><g clip-path="url(#0)"><path d="m0 0l-.116.071c-.653.397-1.355.929-2.03 1.54-1.044.944-4.334 4.243-2.821 7.02.461.848 1.333 1.424 2.333 1.542.952.112 1.822-.182 2.455-.826.099-.101.259-.101.358 0 .633.644 1.503.937 2.456.826.999-.118 1.871-.694 2.332-1.542 1.513-2.782-1.777-6.081-2.821-7.02-.675-.611-1.377-1.143-2.03-1.54" fill="#e41f25" transform="translate(59.4 37.904)"/><path d="m0 0c-.115 0-.231-.007-.349-.021-.869-.102-1.656-.62-2.054-1.352-1.399-2.574 1.799-5.766 2.813-6.683.633-.573 1.289-1.076 1.904-1.462.615.386 1.27.889 1.904 1.462 1.014.917 4.212 4.109 2.813 6.683-.398.732-1.185 1.25-2.054 1.352-.835.099-1.6-.156-2.15-.716-.277-.282-.75-.282-1.026 0-.473.481-1.103.737-1.801.737m2.314-10.06l-.12.073c-.673.409-1.397.959-2.093 1.588-1.077.974-4.468 4.375-2.908 7.244.475.873 1.374 1.468 2.405 1.589.982.116 1.879-.187 2.531-.851.102-.104.267-.104.37 0 .652.664 1.55.966 2.531.851 1.031-.121 1.93-.716 2.405-1.589 1.56-2.869-1.832-6.27-2.908-7.244-.696-.629-1.42-1.178-2.094-1.588" fill="#fff" transform="translate(56.916 47.804)"/><path d="m0 0c-.115 0-.231-.007-.349-.021-.869-.102-1.656-.62-2.054-1.352-1.399-2.574 1.799-5.766 2.813-6.683.633-.573 1.289-1.076 1.904-1.462.615.386 1.27.889 1.904 1.462 1.014.917 4.212 4.109 2.813 6.683-.398.732-1.185 1.25-2.054 1.352-.835.099-1.6-.156-2.15-.716-.277-.282-.75-.282-1.026 0-.473.481-1.103.737-1.801.737m2.314-10.06l-.12.073c-.673.409-1.397.959-2.093 1.588-1.077.974-4.468 4.375-2.908 7.244.475.873 1.374 1.468 2.405 1.589.982.116 1.879-.187 2.531-.851.102-.104.267-.104.37 0 .652.664 1.55.966 2.531.851 1.031-.121 1.93-.716 2.405-1.589 1.56-2.869-1.832-6.27-2.908-7.244-.696-.629-1.42-1.178-2.094-1.588" fill="none" stroke="#fff" stroke-width=".25" stroke-miterlimit="10" transform="translate(56.916 47.804)"/></g></g></svg>